<?xml version="1.0" encoding="utf-8"?>
<!-- Generator: Adobe Illustrator 16.0.0, SVG Export Plug-In . SVG Version: 6.00 Build 0)  -->
<!DOCTYPE svg PUBLIC "-//W3C//DTD SVG 1.1//EN" "http://www.w3.org/Graphics/SVG/1.1/DTD/svg11.dtd">
<svg version="1.1" id="Layer_1" xmlns="http://www.w3.org/2000/svg" xmlns:xlink="http://www.w3.org/1999/xlink" x="0px" y="0px"
	 width="292.023px" height="138.848px" viewBox="0 0 292.023 138.848" enable-background="new 0 0 292.023 138.848"
	 xml:space="preserve">
<circle id="ga2" fill="#6526A8" cx="233.413" cy="4.074" r="4.074"/>
<circle id="ga3" fill="#6526A8" cx="231.531" cy="15.357" r="4.074"/>
<circle id="ga4" fill="#6526A8" cx="227.771" cy="25.7" r="4.074"/>
<circle id="ga5" fill="#6526A8" cx="223.07" cy="35.103" r="4.074"/>
<circle id="ga6" fill="#6526A8" cx="216.488" cy="44.506" r="4.074"/>
<circle id="ga7" fill="#6526A8" cx="209.906" cy="52.028" r="4.074"/>
<circle id="ga8" fill="#6526A8" cx="201.443" cy="59.55" r="4.074"/>
<circle id="ga9" fill="#6526A8" cx="192.041" cy="66.133" r="4.074"/>
<circle id="ga10" fill="#6526A8" cx="182.638" cy="70.834" r="4.075"/>
<circle id="ga11" fill="#6526A8" cx="172.295" cy="74.595" r="4.074"/>
<circle id="ga12" fill="#6526A8" cx="161.95" cy="77.416" r="4.074"/>
<circle id="ga13" fill="#6526A8" cx="151.608" cy="79.296" r="4.074"/>
<circle id="ga14" fill="#6526A8" cx="140.75" cy="79.296" r="4.074"/>
<circle id="ga15" fill="#6526A8" cx="130.406" cy="77.416" r="4.074"/>
<circle id="ga16" fill="#6526A8" cx="120.063" cy="74.595" r="4.074"/>
<circle id="ga17" fill="#6526A8" cx="109.72" cy="70.834" r="4.075"/>
<circle id="ga18" fill="#6526A8" cx="100.317" cy="66.133" r="4.074"/>
<circle id="ga19" fill="#6526A8" cx="90.915" cy="59.55" r="4.074"/>
<circle id="ga20" fill="#6526A8" cx="82.451" cy="52.028" r="4.074"/>
<circle id="ga21" fill="#6526A8" cx="75.87" cy="44.506" r="4.074"/>
<circle id="ga22" fill="#6526A8" cx="69.288" cy="35.103" r="4.074"/>
<circle id="ga23" fill="#6526A8" cx="64.587" cy="25.7" r="4.074"/>
<circle id="ga30" fill="#6526A8" cx="50.106" cy="25.7" r="4.074"/>
<circle id="ga31" fill="#6526A8" cx="53.866" cy="36.043" r="4.074"/>
<circle id="ga32" fill="#6526A8" cx="59.509" cy="45.446" r="4.074"/>
<circle id="ga33" fill="#6526A8" cx="66.091" cy="53.909" r="4.074"/>
<circle id="ga34" fill="#6526A8" cx="72.672" cy="62.371" r="4.075"/>
<circle id="ga35" fill="#6526A8" cx="80.572" cy="69.893" r="4.074"/>
<circle id="ga36" fill="#6526A8" cx="89.974" cy="76.475" r="4.074"/>
<circle id="ga37" fill="#6526A8" cx="99.377" cy="82.117" r="4.074"/>
<circle id="ga38" fill="#6526A8" cx="109.72" cy="85.878" r="4.074"/>
<circle id="ga39" fill="#6526A8" cx="120.063" cy="89.64" r="4.074"/>
<circle id="ga40" fill="#6526A8" cx="130.406" cy="91.52" r="4.074"/>
<circle id="ga41" fill="#6526A8" cx="140.75" cy="92.46" r="4.075"/>
<circle id="ga42" fill="#6526A8" cx="151.608" cy="92.46" r="4.075"/>
<circle id="ga43" fill="#6526A8" cx="161.95" cy="91.52" r="4.074"/>
<circle id="ga44" fill="#6526A8" cx="172.295" cy="89.64" r="4.074"/>
<circle id="ga45" fill="#6526A8" cx="182.638" cy="85.878" r="4.074"/>
<circle id="ga46" fill="#6526A8" cx="192.981" cy="82.117" r="4.074"/>
<circle id="ga47" fill="#6526A8" cx="202.383" cy="76.475" r="4.074"/>
<circle id="ga48" fill="#6526A8" cx="211.786" cy="69.893" r="4.074"/>
<circle id="ga49" fill="#6526A8" cx="219.686" cy="62.371" r="4.075"/>
<circle id="ga50" fill="#6526A8" cx="226.267" cy="53.909" r="4.074"/>
<circle id="ga51" fill="#6526A8" cx="232.849" cy="45.446" r="4.074"/>
<circle id="ga52" fill="#6526A8" cx="238.49" cy="36.043" r="4.074"/>
<circle id="ga53" fill="#6526A8" cx="242.252" cy="25.7" r="4.074"/>
<circle id="ga54" fill="#6526A8" cx="245.637" cy="15.357" r="4.074"/>
<circle id="ga55" fill="#6526A8" cx="247.517" cy="4.074" r="4.074"/>
<circle id="ga58" fill="#6526A8" cx="261.621" cy="4.074" r="4.074"/>
<circle id="ga59" fill="#6526A8" cx="259.74" cy="15.357" r="4.074"/>
<circle id="ga60" fill="#6526A8" cx="256.92" cy="25.7" r="4.074"/>
<circle id="ga61" fill="#6526A8" cx="253.158" cy="36.043" r="4.074"/>
<circle id="ga62" fill="#6526A8" cx="248.457" cy="45.446" r="4.074"/>
<circle id="ga63" fill="#6526A8" cx="242.816" cy="54.848" r="4.074"/>
<circle id="ga64" fill="#6526A8" cx="236.233" cy="64.252" r="4.074"/>
<circle id="ga65" fill="#6526A8" cx="229.652" cy="72.715" r="4.074"/>
<circle id="ga66" fill="#6526A8" cx="221.19" cy="79.296" r="4.074"/>
<circle id="ga67" fill="#6526A8" cx="211.786" cy="85.878" r="4.074"/>
<circle id="ga68" fill="#6526A8" cx="203.323" cy="91.52" r="4.074"/>
<circle id="ga69" fill="#6526A8" cx="193.921" cy="96.222" r="4.075"/>
<circle id="ga70" fill="#6526A8" cx="183.578" cy="100.922" r="4.074"/>
<circle id="ga71" fill="#6526A8" cx="173.234" cy="103.743" r="4.074"/>
<circle id="ga72" fill="#6526A8" cx="161.95" cy="105.624" r="4.074"/>
<circle id="ga73" fill="#6526A8" cx="151.608" cy="106.565" r="4.074"/>
<circle id="ga74" fill="#6526A8" cx="140.75" cy="106.565" r="4.074"/>
<circle id="ga75" fill="#6526A8" cx="130.406" cy="105.624" r="4.074"/>
<circle id="ga76" fill="#6526A8" cx="119.124" cy="103.743" r="4.074"/>
<circle id="ga77" fill="#6526A8" cx="108.78" cy="100.922" r="4.074"/>
<circle id="ga78" fill="#6526A8" cx="98.437" cy="96.222" r="4.075"/>
<circle id="ga79" fill="#6526A8" cx="89.033" cy="91.52" r="4.074"/>
<circle id="ga80" fill="#6526A8" cx="80.572" cy="85.878" r="4.074"/>
<circle id="ga81" fill="#6526A8" cx="71.168" cy="79.296" r="4.074"/>
<circle id="ga82" fill="#6526A8" cx="62.706" cy="72.715" r="4.074"/>
<circle id="ga83" fill="#6526A8" cx="56.124" cy="64.252" r="4.074"/>
<circle id="ga84" fill="#6526A8" cx="49.542" cy="54.848" r="4.074"/>
<circle id="ga85" fill="#6526A8" cx="43.9" cy="45.446" r="4.074"/>
<circle id="ga86" fill="#6526A8" cx="39.198" cy="36.043" r="4.074"/>
<circle id="ga87" fill="#6526A8" cx="35.438" cy="25.7" r="4.074"/>
<circle id="ga95" fill="#6526A8" cx="23.966" cy="36.043" r="4.074"/>
<circle id="ga96" fill="#6526A8" cx="27.727" cy="46.386" r="4.074"/>
<circle id="ga97" fill="#6526A8" cx="33.37" cy="55.79" r="4.074"/>
<circle id="ga98" fill="#6526A8" cx="39.011" cy="65.191" r="4.074"/>
<circle id="ga99" fill="#6526A8" cx="45.78" cy="74.595" r="4.074"/>
<circle id="ga100" fill="#6526A8" cx="53.304" cy="82.117" r="4.074"/>
<circle id="ga101" fill="#6526A8" cx="60.824" cy="89.64" r="4.074"/>
<circle id="ga102" fill="#6526A8" cx="70.229" cy="95.281" r="4.074"/>
<circle id="ga103" fill="#6526A8" cx="78.691" cy="101.863" r="4.074"/>
<circle id="ga104" fill="#6526A8" cx="88.093" cy="106.565" r="4.074"/>
<circle id="ga105" fill="#6526A8" cx="98.437" cy="111.266" r="4.074"/>
<circle id="ga106" fill="#6526A8" cx="108.78" cy="115.027" r="4.074"/>
<circle id="ga107" fill="#6526A8" cx="119.124" cy="117.847" r="4.075"/>
<circle id="ga108" fill="#6526A8" cx="130.406" cy="119.728" r="4.074"/>
<circle id="ga109" fill="#6526A8" cx="140.75" cy="120.668" r="4.074"/>
<circle id="ga110" fill="#6526A8" cx="151.608" cy="120.668" r="4.074"/>
<circle id="ga111" fill="#6526A8" cx="161.95" cy="119.728" r="4.074"/>
<circle id="ga112" fill="#6526A8" cx="173.234" cy="117.847" r="4.075"/>
<circle id="ga113" fill="#6526A8" cx="183.578" cy="115.027" r="4.074"/>
<circle id="ga114" fill="#6526A8" cx="193.921" cy="111.266" r="4.074"/>
<circle id="ga115" fill="#6526A8" cx="204.264" cy="106.565" r="4.074"/>
<circle id="ga116" fill="#6526A8" cx="213.667" cy="101.863" r="4.074"/>
<circle id="ga117" fill="#6526A8" cx="222.129" cy="95.281" r="4.074"/>
<circle id="ga118" fill="#6526A8" cx="231.531" cy="89.64" r="4.074"/>
<circle id="ga119" fill="#6526A8" cx="239.055" cy="82.117" r="4.074"/>
<circle id="ga120" fill="#6526A8" cx="246.576" cy="74.595" r="4.074"/>
<circle id="ga121" fill="#6526A8" cx="253.347" cy="65.191" r="4.074"/>
<circle id="ga122" fill="#6526A8" cx="258.989" cy="55.79" r="4.074"/>
<circle id="ga123" fill="#6526A8" cx="264.63" cy="46.386" r="4.074"/>
<circle id="ga124" fill="#6526A8" cx="268.392" cy="36.043" r="4.074"/>
<circle id="ga125" fill="#6526A8" cx="271.212" cy="25.7" r="4.074"/>
<circle id="ga126" fill="#6526A8" cx="272.905" cy="15.357" r="4.074"/>
<circle id="ga127" fill="#6526A8" cx="274.786" cy="4.074" r="4.074"/>
<circle id="ga130" fill="#6526A8" cx="287.948" cy="4.074" r="4.074"/>
<circle id="ga131" fill="#6526A8" cx="287.009" cy="15.357" r="4.074"/>
<circle id="ga140" fill="#6526A8" cx="285.129" cy="25.7" r="4.074"/>
<circle id="ga141" fill="#6526A8" cx="282.307" cy="36.043" r="4.074"/>
<circle id="ga142" fill="#6526A8" cx="279.487" cy="46.386" r="4.074"/>
<circle id="ga143" fill="#6526A8" cx="273.845" cy="56.729" r="4.074"/>
<circle id="ga144" fill="#6526A8" cx="269.144" cy="66.133" r="4.074"/>
<circle id="ga145" fill="#6526A8" cx="263.502" cy="75.535" r="4.074"/>
<circle id="ga146" fill="#6526A8" cx="256.92" cy="83.997" r="4.075"/>
<circle id="ga147" fill="#6526A8" cx="249.398" cy="91.52" r="4.074"/>
<circle id="ga148" fill="#6526A8" cx="241.876" cy="99.042" r="4.074"/>
<circle id="ga149" fill="#6526A8" cx="232.472" cy="106.565" r="4.074"/>
<circle id="ga150" fill="#6526A8" cx="223.07" cy="112.206" r="4.074"/>
<circle id="ga151" fill="#6526A8" cx="213.667" cy="117.847" r="4.075"/>
<circle id="ga152" fill="#6526A8" cx="204.264" cy="122.549" r="4.074"/>
<circle id="ga153" fill="#6526A8" cx="194.861" cy="127.251" r="4.074"/>
<circle id="ga154" fill="#6526A8" cx="184.518" cy="130.071" r="4.074"/>
<circle id="ga155" fill="#6526A8" cx="174.175" cy="132.892" r="4.074"/>
<circle id="ga156" fill="#6526A8" cx="162.892" cy="133.833" r="4.074"/>
<circle id="ga157" fill="#6526A8" cx="151.608" cy="134.773" r="4.074"/>
<circle id="ga158" fill="#6526A8" cx="140.75" cy="134.773" r="4.074"/>
<circle id="ga159" fill="#6526A8" cx="129.466" cy="133.833" r="4.074"/>
<circle id="ga160" fill="#6526A8" cx="118.183" cy="132.892" r="4.074"/>
<circle id="ga161" fill="#6526A8" cx="107.839" cy="130.072" r="4.075"/>
<circle id="ga162" fill="#6526A8" cx="97.497" cy="127.251" r="4.074"/>
<circle id="ga163" fill="#6526A8" cx="88.093" cy="122.549" r="4.074"/>
<circle id="ga164" fill="#6526A8" cx="78.691" cy="117.847" r="4.075"/>
<circle id="ga165" fill="#6526A8" cx="69.288" cy="112.206" r="4.074"/>
<circle id="ga166" fill="#6526A8" cx="59.886" cy="106.565" r="4.074"/>
<circle id="ga167" fill="#6526A8" cx="50.483" cy="99.042" r="4.074"/>
<circle id="ga168" fill="#6526A8" cx="42.961" cy="91.52" r="4.074"/>
<circle id="ga169" fill="#6526A8" cx="35.438" cy="83.997" r="4.075"/>
<circle id="ga170" fill="#6526A8" cx="28.856" cy="75.535" r="4.074"/>
<circle id="ga171" fill="#6526A8" cx="23.214" cy="66.133" r="4.074"/>
<circle id="ga172" fill="#6526A8" cx="18.513" cy="56.729" r="4.074"/>
<circle id="ga173" fill="#6526A8" cx="12.872" cy="46.386" r="4.074"/>
<circle id="ga174" fill="#6526A8" cx="10.05" cy="36.043" r="4.074"/>
<circle id="ga88" fill="#D3D3D3" cx="32.616" cy="15.357" r="4.074"/>
<circle id="ga89" fill="#D3D3D3" cx="30.737" cy="4.074" r="4.074"/>
<circle id="ga92" fill="#D3D3D3" cx="17.572" cy="4.074" r="4.074"/>
<circle id="ga93" fill="#D3D3D3" cx="19.454" cy="15.357" r="4.074"/>
<circle id="ga94" fill="#D3D3D3" cx="21.146" cy="25.7" r="4.074"/>
<circle id="ga24" fill="#D3D3D3" cx="60.824" cy="15.357" r="4.074"/>
<circle id="ga25" fill="#D3D3D3" cx="58.945" cy="4.074" r="4.074"/>
<circle id="ga28" fill="#D3D3D3" cx="44.841" cy="4.074" r="4.074"/>
<circle id="ga29" fill="#D3D3D3" cx="46.722" cy="15.357" r="4.074"/>
<circle id="ga175" fill="#D3D3D3" cx="7.23" cy="25.7" r="4.074"/>
<circle id="ga176" fill="#D3D3D3" cx="5.349" cy="15.357" r="4.074"/>
<circle id="ga177" fill="#D3D3D3" cx="4.408" cy="4.074" r="4.074"/>
</svg>
